<?xml version="1.0" encoding="UTF-8" standalone="no"?>
<svg
   width="40"
   height="40"
   viewBox="0 0 40 40"
   fill="none"
   version="1.1"
   id="svg13"
   sodipodi:docname="pluginIcon.svg"
   inkscape:version="1.2.2 (732a01da63, 2022-12-09)"
   xml:space="preserve"
   xmlns:inkscape="http://www.inkscape.org/namespaces/inkscape"
   xmlns:sodipodi="http://sodipodi.sourceforge.net/DTD/sodipodi-0.dtd"
   xmlns="http://www.w3.org/2000/svg"
   xmlns:svg="http://www.w3.org/2000/svg"><sodipodi:namedview
     id="namedview15"
     pagecolor="#ffffff"
     bordercolor="#666666"
     borderopacity="1.0"
     inkscape:showpageshadow="2"
     inkscape:pageopacity="0.0"
     inkscape:pagecheckerboard="0"
     inkscape:deskcolor="#d1d1d1"
     showgrid="false"
     inkscape:zoom="8.34386"
     inkscape:cx="-1.5580319"
     inkscape:cy="34.756096"
     inkscape:window-width="1920"
     inkscape:window-height="1009"
     inkscape:window-x="-8"
     inkscape:window-y="-8"
     inkscape:window-maximized="1"
     inkscape:current-layer="svg13" /><defs
     id="defs11"><linearGradient
       id="paint0_linear"
       x1="2.94192"
       y1="4.89955"
       x2="37.7772"
       y2="39.7345"
       gradientUnits="userSpaceOnUse"><stop
         offset="0.15937"
         stop-color="#3BEA62"
         id="stop4" /><stop
         offset="0.5404"
         stop-color="#3C99CC"
         id="stop6" /><stop
         offset="0.93739"
         stop-color="#6B57FF"
         id="stop8" /></linearGradient></defs><path
     d="m 5.4641846,12.759078 c 0,0 -0.734587,-0.529515 0.146918,-1.236554 l 2.053781,-1.836467 c 0,0 0.58767,-0.618277 1.209008,-0.07958 L 27.82623,23.955405 v 6.880628 c 0,0 -0.0092,1.080455 -1.395716,0.961085 z"
     fill="#2489ca"
     id="path227"
     style="stroke-width:2.46585" /><path
     d="m 10.349186,17.194146 -4.8850014,4.441189 c 0,0 -0.501968,0.373415 0,1.040664 l 2.268037,2.062965 c 0,0 0.538696,0.578487 1.334499,-0.07958 l 5.1788364,-3.926979 z"
     fill="#1070b3"
     id="path229"
     style="stroke-width:2.46585" /><path
     d="m 18.925486,17.230875 8.958899,-6.840839 -0.05815,-6.8439009 c 0,0 -0.382598,-1.4936586 -1.658943,-0.7162208 L 14.245557,13.680372 Z"
     fill="#0877b9"
     id="path231"
     style="stroke-width:2.46585" /><path
     d="m 26.430514,31.806301 c 0.520332,0.532576 1.150853,0.35811 1.150853,0.35811 l 6.981635,-3.440314 C 35.45675,28.115002 35.331256,27.35899 35.331256,27.35899 V 6.8150471 c 0,-0.9029296 -0.924353,-1.215129 -0.924353,-1.215129 L 28.355745,2.6829966 c -1.322258,-0.8172279 -2.188458,0.1469177 -2.188458,0.1469177 0,0 1.114124,-0.8019244 1.658943,0.7162208 V 30.710543 c 0,0.186706 -0.03979,0.370353 -0.119373,0.535635 -0.159159,0.321381 -0.505027,0.621339 -1.334498,0.495846 z"
     fill="#3c99d4"
     id="path233"
     style="stroke-width:2.46585" /><rect
     style="fill:#d4aa00;stroke:#000000;stroke-width:0.5;stroke-linecap:round;stroke-linejoin:round;paint-order:stroke fill markers;stroke-opacity:1;stroke-dasharray:none"
     id="rect347"
     width="15.585415"
     height="12.705955"
     x="7.5690622"
     y="22.909006" /><rect
     style="fill:#ffffff;stroke:#000000;stroke-width:0.5;stroke-linecap:round;stroke-linejoin:round;paint-order:stroke fill markers;stroke-dasharray:none"
     id="rect442"
     width="8.5092506"
     height="12.224558"
     x="14.456686"
     y="17.857443" /><rect
     style="fill:#ffffff;stroke:#000000;stroke-width:0.5;stroke-linecap:round;stroke-linejoin:round;paint-order:stroke fill markers;stroke-dasharray:none"
     id="rect442-8"
     width="8.5092506"
     height="12.224558"
     x="11.041"
     y="21.093355" /><rect
     style="fill:#ffe680;stroke:#000000;stroke-width:0.53613856;stroke-linecap:round;stroke-linejoin:round;paint-order:stroke fill markers;stroke-opacity:1;stroke-dasharray:none"
     id="rect347-0"
     width="15.585415"
     height="11.729692"
     x="28.163921"
     y="29.357916"
     transform="matrix(1,0,-0.49352268,0.86973293,0,0)" /><path
     style="fill:none;stroke:#66ff00;stroke-width:2.4;stroke-linecap:round;stroke-linejoin:round;stroke-dasharray:none;stroke-opacity:1;marker-end:;paint-order:stroke fill markers"
     id="path2903"
     sodipodi:type="arc"
     sodipodi:cx="18.981075"
     sodipodi:cy="21.789949"
     sodipodi:rx="9.4680395"
     sodipodi:ry="9.4081154"
     sodipodi:start="3.7545367"
     sodipodi:end="5.7253735"
     sodipodi:arc-type="arc"
     d="m 11.236617,16.377667 a 9.4680395,9.4081154 0 0 1 8.005422,-3.992259 9.4680395,9.4081154 0 0 1 7.771867,4.424535"
     sodipodi:open="true" /><path
     style="fill:none;stroke:#66ff00;stroke-width:1.8;stroke-linecap:butt;stroke-linejoin:miter;stroke-dasharray:none;stroke-opacity:1"
     d="m 27.797019,12.101526 -0.08244,5.435009 -5.886811,-0.961418"
     id="path1714" /></svg>
